HIERARCHY
ROOT pelvis
{
  OFFSET 0 100 0
  CHANNELS 6 Xposition Yposition Zposition Zrotation Xrotation Yrotation
  JOINT pelvis_right_femur
  {
    OFFSET -10.78128 -3.44521 -0.5502486
    CHANNELS 3 Zrotation Xrotation Yrotation
    JOINT right_femur_tibia
    {
      OFFSET -0.8047443 -44.0398 -0.1307829
      CHANNELS 3 Zrotation Xrotation Yrotation
      JOINT right_tibia_foot
      {
        OFFSET 3.006224 -47.83518 -5
        CHANNELS 3 Zrotation Xrotation Yrotation
        End Site
        {
          OFFSET 0 -5 15
        }
      }
    }
  }
  JOINT pelvis_left_femur
  {
    OFFSET 10.78128 -3.44521 -0.5502486
    CHANNELS 3 Zrotation Xrotation Yrotation
    JOINT left_femur_tibia
    {
      OFFSET 0.8047443 -44.0398 -0.1307829
      CHANNELS 3 Zrotation Xrotation Yrotation
      JOINT left_tibia_foot
      {
        OFFSET -4.370144 -48.10324 -4.275266
        CHANNELS 3 Zrotation Xrotation Yrotation
        End Site
        {
          OFFSET 0 -5 15
        }
      }
    }
  }
  JOINT pelvis_spine1
  {
    OFFSET 0 6.468898 -3.129235
    CHANNELS 3 Zrotation Xrotation Yrotation
    JOINT spine1
    {
      OFFSET 0 23.15396 4.99043
      CHANNELS 3 Zrotation Xrotation Yrotation
      JOINT spine2
      {
        OFFSET 0 20.79997 -5.064912
        CHANNELS 3 Zrotation Xrotation Yrotation
        JOINT neck
        {
          OFFSET 0 14.38658 9.616178
          CHANNELS 3 Zrotation Xrotation Yrotation
          End Site
          {
            OFFSET 0 20 0
          }
        }
      }
      JOINT right_manubrium
      {
        OFFSET -5.722621 16.35077 3.967754
        CHANNELS 3 Zrotation Xrotation Yrotation
        JOINT right_clavicle
        {
          OFFSET -13.16364 1.694482 -4.693211
          CHANNELS 3 Zrotation Xrotation Yrotation
          JOINT right_humerus
          {
            OFFSET -28.5034 -0.3100689 -2.792744
            CHANNELS 3 Zrotation Xrotation Yrotation
            JOINT right_radius
            {
              OFFSET -25.15693 0.02248979 -1.271978
              CHANNELS 3 Zrotation Xrotation Yrotation
              End Site
              {
                OFFSET -15 0 0
              }
            }
          }
        }
      }
      JOINT left_manubrium
      {
        OFFSET 5.722621 16.35077 3.967754
        CHANNELS 3 Zrotation Xrotation Yrotation
        JOINT left_clavicle
        {
          OFFSET 13.16364 1.694482 -4.693211
          CHANNELS 3 Zrotation Xrotation Yrotation
          JOINT left_humerus
          {
            OFFSET 29.39168 -1.063119 -2.237045
            CHANNELS 3 Zrotation Xrotation Yrotation
            JOINT left_radius
            {
              OFFSET 24.59957 -0.9528479 0.9047498
              CHANNELS 3 Zrotation Xrotation Yrotation
              End Site
              {
                OFFSET 15 -0 -0
              }
            }
          }
        }
      }
    }
  }
}
MOTION
Frames: 11
Frame Time: 0.0416666666667
-578.0564 101.6226 2886.449 -1.735705 -2.633632 -26.88392 3.870174 -27.1747 -0.9907057 -0 7.212763 -0 -6.408799 -1.063352 -4.506367 -3.826926 15.73525 -8.585427 -0 21.1678 -0 -2.753475 -17.25985 12.07654 0.6333764 -2.502654 3.535836 1.10922 13.95324 -8.408448 1.848153 21.64086 4.399607 1.235296 -19.30597 6.65079 -2.584311 -20.14734 11.35157 96.71954 15.57713 -24.67084 -0 0 9.133947 -21.28343 13.72865 9.749169 4.900404 -26.98924 -8.687539 -84.85976 18.61227 13.72758 0 0 -29.18721 5.984225 13.32711 7.420895
-581.3119 101.1377 2892.095 -2.117099 -3.414945 -26.8029 4.223248 -25.46727 -0.637145 -0 8.6771 -0 -6.079217 -0.2017022 -4.961328 -3.776693 14.99404 -7.703903 -0 28.55402 -0 -3.914838 -15.63063 11.49597 0.7399517 -2.629218 3.626257 1.121242 14.13221 -8.446564 1.824778 21.55357 4.340745 1.199042 -19.4689 6.599673 -2.732766 -20.51172 11.3921 96.85533 15.25344 -24.69 -0 0 9.399636 -21.21916 13.75923 9.769767 4.815084 -27.14234 -8.806388 -85.10726 18.54164 14.35146 0 0 -29.22581 6.018154 13.46765 7.477216
-584.6409 101.1996 2897.822 -2.529664 -4.288246 -26.87678 4.757898 -22.2724 0.1879418 -0 10.8799 -0 -5.796686 -0.1688652 -5.335867 -3.630986 12.91263 -7.095799 -0 37.25293 -0 -4.886702 -13.44521 11.46285 0.8481454 -2.738862 3.883451 1.052665 14.31538 -8.323722 1.802007 21.45397 4.25362 1.156949 -19.59724 6.515606 -2.870791 -21.11724 11.44436 96.67087 14.992 -24.18329 -0 0 10.20961 -21.32672 13.79435 9.988244 4.6579 -27.04804 -8.856435 -85.721 18.48867 15.65315 0 0 -28.60344 5.835425 13.56205 7.776766
-587.9438 101.8059 2903.433 -2.920838 -5.046814 -27.1755 5.424082 -17.94052 1.322237 -0 12.74411 -0 -5.737908 -1.278114 -5.49555 -3.324101 9.530923 -6.824472 -0 46.04074 -0 -5.493781 -10.9645 12.00586 0.9558014 -2.829342 4.298269 0.9055062 14.49885 -8.044839 1.7801 21.34485 4.140685 1.110655 -19.6885 6.400577 -2.995287 -21.94604 11.50685 96.18269 14.79008 -23.17306 -0 0 11.53476 -21.6009 13.83066 10.39611 4.435005 -26.71436 -8.837024 -86.68882 18.42933 17.58811 0 0 -27.34414 5.44921 13.60818 8.301848
-591.1395 102.8167 2908.779 -3.2413 -5.558507 -27.73232 6.044476 -12.91476 2.46322 -0 13.63824 -0 -5.917732 -3.392595 -5.363557 -2.856881 5.108208 -6.793208 -0 53.14578 -0 -5.684381 -8.559218 12.98852 1.065268 -2.906039 4.843478 0.6936509 14.68475 -7.63884 1.758292 21.22628 4.005719 1.060232 -19.75287 6.259458 -3.110782 -22.96387 11.57819 95.45675 14.61785 -21.75252 -0 0 13.28554 -22.00955 13.86592 10.95881 4.156941 -26.18829 -8.761206 -87.96125 18.33244 20.04731 0 0 -25.56599 4.897229 13.6132 9.013028
-594.1937 103.9859 2913.852 -3.452386 -5.790398 -28.51573 6.416476 -7.706049 3.262438 -0 13.38696 -0 -6.199468 -5.960182 -4.934736 -2.257945 0.1120416 -6.762953 -0 56.73936 -0 -5.52311 -6.622097 14.13477 1.179295 -2.9774 5.466137 0.4446126 14.87463 -7.16137 1.735775 21.09919 3.856797 1.005484 -19.80771 6.102892 -3.22423 -24.09982 11.655 94.60933 14.43761 -20.10023 -0 0 15.28812 -22.49196 13.89956 11.61007 3.843919 -25.55557 -8.653459 -89.42678 18.17593 22.81677 0 0 -23.49676 4.244012 13.59087 9.842869
-597.1217 105.0355 2918.777 -3.536637 -5.796861 -29.43768 6.430003 -2.740264 3.508939 -0 12.25664 -0 -6.399349 -8.340294 -4.256187 -1.552848 -4.949645 -6.511967 -0 55.80866 -0 -5.123247 -5.41111 15.18479 1.291666 -3.040907 6.113977 0.1811154 15.05638 -6.656925 1.713849 20.97135 3.705247 0.9491052 -19.85439 5.943825 -3.330536 -25.26488 11.73158 93.72569 14.24736 -18.36633 -0 0 17.37347 -23.00244 13.92987 12.29224 3.51978 -24.8773 -8.526274 -90.96438 17.9595 25.66577 0 0 -21.32699 3.542541 13.54309 10.72842
-599.9583 105.7312 2923.718 -3.498697 -5.65594 -30.39514 6.11858 1.766173 3.235991 -0 10.69042 -0 -6.423639 -10.21065 -3.397072 -0.7679374 -9.738098 -5.992654 -0 50.64768 -0 -4.565469 -4.948631 16.04197 1.384899 -3.078232 6.762108 -0.09371395 15.20215 -6.129291 1.696428 20.85763 3.561677 0.8975563 -19.86783 5.791949 -3.408043 -26.38673 11.80224 92.80193 14.08894 -16.57612 -0 0 19.46558 -23.543 13.95087 12.9908 3.20185 -24.14568 -8.366249 -92.50617 17.69606 28.45223 0 0 -19.08974 2.805474 13.44989 11.64005
-602.7251 105.9253 2928.786 -3.359725 -5.427407 -31.3102 5.60656 5.775248 2.65666 -0 9.082941 -0 -6.295085 -11.6289 -2.438181 0.04609108 -14.11782 -5.330625 -0 42.56922 -0 -3.885119 -5.062842 16.76526 1.438117 -3.065474 7.406953 -0.3887318 15.27972 -5.557697 1.688375 20.77393 3.433996 0.8579208 -19.81207 5.653339 -3.42988 -27.4176 11.86312 91.7822 14.0137 -14.67343 -0 0 21.55925 -24.14426 13.9547 13.72 2.898819 -23.31357 -8.147184 -94.03051 17.40191 31.11504 0 0 -16.71948 2.017319 13.27981 12.57652
-605.4208 105.5741 2934.007 -3.157708 -5.170285 -32.14184 5.014629 9.283204 2.026681 -0 7.852653 -0 -6.06837 -12.74424 -1.482213 0.7951804 -17.98979 -4.7156 -0 33.31375 -0 -3.129286 -5.509515 17.44753 1.433714 -2.984318 8.033671 -0.7040667 15.26135 -4.938132 1.693996 20.73364 3.330717 0.8354524 -19.66035 5.536205 -3.375043 -28.30031 11.9105 90.64002 14.05739 -12.64858 -0 0 23.61126 -24.81886 13.93627 14.47704 2.620737 -22.35914 -7.852866 -95.49088 17.1079 33.55875 0 0 -14.21526 1.174302 13.00773 13.52858
-608.0372 104.7496 2939.353 -2.952206 -4.97366 -32.87382 4.405478 12.21369 1.555557 -0 7.582196 -0 -5.757718 -13.52934 -0.6655898 1.342089 -21.13524 -4.310941 -0 24.67535 -0 -2.41281 -6.060315 18.11286 1.360643 -2.829585 8.587561 -1.015074 15.13023 -4.314838 1.715701 20.74749 3.26486 0.8344267 -19.40814 5.454893 -3.234159 -28.93452 11.93868 89.43625 14.24 -10.64091 -0 0 25.44533 -25.52374 13.89499 15.20408 2.39196 -21.3375 -7.49495 -96.75224 16.87523 35.55249 0 0 -11.76294 0.331028 12.63665 14.42757
